<svg xmlns="http://www.w3.org/2000/svg" viewBox="0 0 48 48">
  <g fill="none" stroke-width="3">
    <path fill="#8fbffa" d="M12.873 20.369c-.277.841-1.469.841-1.745 0l-1.71-5.2a.92.92 0 0 0-.586-.586l-5.2-1.71c-.843-.277-.843-1.469 0-1.745l5.2-1.71a.92.92 0 0 0 .585-.586l1.71-5.2c.277-.843 1.469-.843 1.745 0l1.71 5.2a.92.92 0 0 0 .586.585l5.2 1.71c.843.277.843 1.469 0 1.745l-5.2 1.71a.92.92 0 0 0-.585.586zm4.097 23.929c-.308.936-1.632.936-1.94 0l-1.9-5.778a1.02 1.02 0 0 0-.65-.65l-5.778-1.9c-.936-.308-.936-1.632 0-1.94l5.778-1.9a1.02 1.02 0 0 0 .65-.65l1.9-5.778c.308-.936 1.632-.936 1.94 0l1.9 5.778c.101.308.342.549.65.65l5.778 1.9c.936.308.936 1.632 0 1.94l-5.778 1.9a1.02 1.02 0 0 0-.65.65zm16.21-12.152c-.375 1.139-1.985 1.139-2.36 0l-2.518-7.656a1.24 1.24 0 0 0-.792-.792l-7.656-2.518c-1.139-.375-1.139-1.985 0-2.36l7.656-2.518a1.24 1.24 0 0 0 .792-.792l2.518-7.656c.375-1.139 1.985-1.139 2.36 0l2.518 7.656c.123.375.417.669.792.792l7.656 2.518c1.139.375 1.139 1.985 0 2.36l-7.656 2.518a1.24 1.24 0 0 0-.792.792z"/>
    <path stroke="#2859c5" stroke-linecap="round" stroke-linejoin="round" d="M33.18 32.146c-.375 1.139-1.985 1.139-2.36 0l-2.518-7.656a1.24 1.24 0 0 0-.792-.792l-7.656-2.518c-1.139-.375-1.139-1.985 0-2.36l7.656-2.518a1.24 1.24 0 0 0 .792-.792l2.518-7.656c.375-1.139 1.985-1.139 2.36 0l2.518 7.656c.123.375.417.669.792.792l7.656 2.518c1.139.375 1.139 1.985 0 2.36l-7.656 2.518a1.24 1.24 0 0 0-.792.792zM16.97 44.298c-.308.936-1.632.936-1.94 0l-1.9-5.778a1.02 1.02 0 0 0-.65-.65l-5.778-1.9c-.936-.308-.936-1.632 0-1.94l5.778-1.9a1.02 1.02 0 0 0 .65-.65l1.9-5.778c.308-.936 1.632-.936 1.94 0l1.9 5.778c.101.308.342.549.65.65l5.778 1.9c.936.308.936 1.632 0 1.94l-5.778 1.9a1.02 1.02 0 0 0-.65.65zm-4.097-23.929c-.277.841-1.469.841-1.745 0l-1.71-5.2a.92.92 0 0 0-.586-.586l-5.2-1.71c-.843-.277-.843-1.469 0-1.745l5.2-1.71a.92.92 0 0 0 .585-.586l1.71-5.2c.277-.843 1.469-.843 1.745 0l1.71 5.2a.92.92 0 0 0 .586.585l5.2 1.71c.843.277.843 1.469 0 1.745l-5.2 1.71a.92.92 0 0 0-.585.586z"/>
  </g>
</svg>
